<mxfile host="app.diagrams.net" modified="2022-10-05T08:01:26.523Z" agent="5.0 (Windows NT 6.3; Win64; x64) AppleWebKit/537.36 (KHTML, like Gecko) Chrome/105.0.0.0 Safari/537.36" etag="IKvL9DSk87UxmQ6ZoBUm" version="20.4.0" type="github">
  <diagram name="Page-1" id="2a216829-ef6e-dabb-86c1-c78162f3ba2b">
    <mxGraphModel dx="1958" dy="425" grid="1" gridSize="10" guides="1" tooltips="1" connect="1" arrows="1" fold="1" page="1" pageScale="1" pageWidth="850" pageHeight="1100" background="none" math="0" shadow="0">
      <root>
        <mxCell id="0" />
        <mxCell id="1" parent="0" />
        <mxCell id="GtSeB2v9Dmk6VtzoBD2T-3" value="" style="edgeStyle=orthogonalEdgeStyle;rounded=0;orthogonalLoop=1;jettySize=auto;html=1;" edge="1" parent="1" source="GtSeB2v9Dmk6VtzoBD2T-1" target="GtSeB2v9Dmk6VtzoBD2T-2">
          <mxGeometry relative="1" as="geometry" />
        </mxCell>
        <mxCell id="GtSeB2v9Dmk6VtzoBD2T-1" value="Start" style="ellipse;whiteSpace=wrap;html=1;aspect=fixed;" vertex="1" parent="1">
          <mxGeometry x="30" y="130" width="50" height="50" as="geometry" />
        </mxCell>
        <mxCell id="GtSeB2v9Dmk6VtzoBD2T-7" value="" style="edgeStyle=orthogonalEdgeStyle;rounded=0;orthogonalLoop=1;jettySize=auto;html=1;" edge="1" parent="1" source="GtSeB2v9Dmk6VtzoBD2T-2" target="GtSeB2v9Dmk6VtzoBD2T-6">
          <mxGeometry relative="1" as="geometry" />
        </mxCell>
        <mxCell id="GtSeB2v9Dmk6VtzoBD2T-2" value="Shipment Recieves To Company" style="whiteSpace=wrap;html=1;" vertex="1" parent="1">
          <mxGeometry x="-5" y="220" width="120" height="60" as="geometry" />
        </mxCell>
        <mxCell id="GtSeB2v9Dmk6VtzoBD2T-9" value="" style="edgeStyle=orthogonalEdgeStyle;rounded=0;orthogonalLoop=1;jettySize=auto;html=1;" edge="1" parent="1" source="GtSeB2v9Dmk6VtzoBD2T-6" target="GtSeB2v9Dmk6VtzoBD2T-8">
          <mxGeometry relative="1" as="geometry" />
        </mxCell>
        <mxCell id="GtSeB2v9Dmk6VtzoBD2T-22" value="" style="edgeStyle=orthogonalEdgeStyle;rounded=0;orthogonalLoop=1;jettySize=auto;html=1;" edge="1" parent="1" source="GtSeB2v9Dmk6VtzoBD2T-6" target="GtSeB2v9Dmk6VtzoBD2T-21">
          <mxGeometry relative="1" as="geometry" />
        </mxCell>
        <mxCell id="GtSeB2v9Dmk6VtzoBD2T-6" value="There is&lt;br&gt;&amp;nbsp;Shipment Info&lt;br&gt;&amp;nbsp;In System" style="rhombus;whiteSpace=wrap;html=1;" vertex="1" parent="1">
          <mxGeometry x="170" y="200" width="90" height="90" as="geometry" />
        </mxCell>
        <mxCell id="GtSeB2v9Dmk6VtzoBD2T-30" style="edgeStyle=orthogonalEdgeStyle;rounded=0;orthogonalLoop=1;jettySize=auto;html=1;" edge="1" parent="1" source="GtSeB2v9Dmk6VtzoBD2T-8" target="GtSeB2v9Dmk6VtzoBD2T-26">
          <mxGeometry relative="1" as="geometry" />
        </mxCell>
        <mxCell id="GtSeB2v9Dmk6VtzoBD2T-8" value="Guardians&amp;nbsp; Investigate Shipment" style="whiteSpace=wrap;html=1;" vertex="1" parent="1">
          <mxGeometry x="320" y="217.5" width="125" height="55" as="geometry" />
        </mxCell>
        <mxCell id="GtSeB2v9Dmk6VtzoBD2T-10" value="Yes" style="text;html=1;align=center;verticalAlign=middle;resizable=0;points=[];autosize=1;strokeColor=none;fillColor=none;" vertex="1" parent="1">
          <mxGeometry x="260" y="215" width="40" height="30" as="geometry" />
        </mxCell>
        <mxCell id="GtSeB2v9Dmk6VtzoBD2T-19" value="No" style="text;html=1;align=center;verticalAlign=middle;resizable=0;points=[];autosize=1;strokeColor=none;fillColor=none;" vertex="1" parent="1">
          <mxGeometry x="220" y="290" width="40" height="30" as="geometry" />
        </mxCell>
        <mxCell id="GtSeB2v9Dmk6VtzoBD2T-21" value="Wrong Shipment Content" style="whiteSpace=wrap;html=1;" vertex="1" parent="1">
          <mxGeometry x="155" y="330" width="120" height="60" as="geometry" />
        </mxCell>
        <mxCell id="GtSeB2v9Dmk6VtzoBD2T-32" value="" style="edgeStyle=orthogonalEdgeStyle;rounded=0;orthogonalLoop=1;jettySize=auto;html=1;" edge="1" parent="1" source="GtSeB2v9Dmk6VtzoBD2T-26" target="GtSeB2v9Dmk6VtzoBD2T-31">
          <mxGeometry relative="1" as="geometry" />
        </mxCell>
        <mxCell id="GtSeB2v9Dmk6VtzoBD2T-48" value="" style="edgeStyle=orthogonalEdgeStyle;rounded=0;orthogonalLoop=1;jettySize=auto;html=1;" edge="1" parent="1" source="GtSeB2v9Dmk6VtzoBD2T-26" target="GtSeB2v9Dmk6VtzoBD2T-47">
          <mxGeometry relative="1" as="geometry" />
        </mxCell>
        <mxCell id="GtSeB2v9Dmk6VtzoBD2T-26" value="Weight Inspects," style="rhombus;whiteSpace=wrap;html=1;" vertex="1" parent="1">
          <mxGeometry x="500" y="205" width="80" height="80" as="geometry" />
        </mxCell>
        <mxCell id="GtSeB2v9Dmk6VtzoBD2T-35" value="" style="edgeStyle=orthogonalEdgeStyle;rounded=0;orthogonalLoop=1;jettySize=auto;html=1;" edge="1" parent="1" source="GtSeB2v9Dmk6VtzoBD2T-31" target="GtSeB2v9Dmk6VtzoBD2T-34">
          <mxGeometry relative="1" as="geometry" />
        </mxCell>
        <mxCell id="GtSeB2v9Dmk6VtzoBD2T-39" value="" style="edgeStyle=orthogonalEdgeStyle;rounded=0;orthogonalLoop=1;jettySize=auto;html=1;" edge="1" parent="1" source="GtSeB2v9Dmk6VtzoBD2T-31" target="GtSeB2v9Dmk6VtzoBD2T-38">
          <mxGeometry relative="1" as="geometry" />
        </mxCell>
        <mxCell id="GtSeB2v9Dmk6VtzoBD2T-31" value="Quality Inspects" style="rhombus;whiteSpace=wrap;html=1;" vertex="1" parent="1">
          <mxGeometry x="630" y="205" width="80" height="80" as="geometry" />
        </mxCell>
        <mxCell id="GtSeB2v9Dmk6VtzoBD2T-33" value="True" style="text;html=1;align=center;verticalAlign=middle;resizable=0;points=[];autosize=1;strokeColor=none;fillColor=none;" vertex="1" parent="1">
          <mxGeometry x="575" y="215" width="50" height="30" as="geometry" />
        </mxCell>
        <mxCell id="GtSeB2v9Dmk6VtzoBD2T-43" value="" style="edgeStyle=orthogonalEdgeStyle;rounded=0;orthogonalLoop=1;jettySize=auto;html=1;" edge="1" parent="1" source="GtSeB2v9Dmk6VtzoBD2T-34" target="GtSeB2v9Dmk6VtzoBD2T-42">
          <mxGeometry relative="1" as="geometry" />
        </mxCell>
        <mxCell id="GtSeB2v9Dmk6VtzoBD2T-34" value="Recieves To Raw Mat WH" style="whiteSpace=wrap;html=1;" vertex="1" parent="1">
          <mxGeometry x="620" y="330" width="100" height="60" as="geometry" />
        </mxCell>
        <mxCell id="GtSeB2v9Dmk6VtzoBD2T-37" value="yes" style="text;html=1;align=center;verticalAlign=middle;resizable=0;points=[];autosize=1;strokeColor=none;fillColor=none;" vertex="1" parent="1">
          <mxGeometry x="670" y="285" width="40" height="30" as="geometry" />
        </mxCell>
        <mxCell id="GtSeB2v9Dmk6VtzoBD2T-41" value="" style="edgeStyle=orthogonalEdgeStyle;rounded=0;orthogonalLoop=1;jettySize=auto;html=1;" edge="1" parent="1" source="GtSeB2v9Dmk6VtzoBD2T-38" target="GtSeB2v9Dmk6VtzoBD2T-40">
          <mxGeometry relative="1" as="geometry" />
        </mxCell>
        <mxCell id="GtSeB2v9Dmk6VtzoBD2T-38" value="Return Ahipment To vendor" style="whiteSpace=wrap;html=1;" vertex="1" parent="1">
          <mxGeometry x="780" y="215" width="120" height="60" as="geometry" />
        </mxCell>
        <mxCell id="GtSeB2v9Dmk6VtzoBD2T-40" value="End" style="ellipse;whiteSpace=wrap;html=1;" vertex="1" parent="1">
          <mxGeometry x="900" y="360" width="40" height="45" as="geometry" />
        </mxCell>
        <mxCell id="GtSeB2v9Dmk6VtzoBD2T-45" style="edgeStyle=orthogonalEdgeStyle;rounded=0;orthogonalLoop=1;jettySize=auto;html=1;entryX=0.5;entryY=1;entryDx=0;entryDy=0;" edge="1" parent="1" source="GtSeB2v9Dmk6VtzoBD2T-42" target="GtSeB2v9Dmk6VtzoBD2T-40">
          <mxGeometry relative="1" as="geometry">
            <mxPoint x="920" y="420" as="targetPoint" />
          </mxGeometry>
        </mxCell>
        <mxCell id="GtSeB2v9Dmk6VtzoBD2T-42" value="Update Shiment Info&lt;br&gt;Increase Inventory" style="whiteSpace=wrap;html=1;" vertex="1" parent="1">
          <mxGeometry x="610" y="430" width="120" height="50" as="geometry" />
        </mxCell>
        <mxCell id="GtSeB2v9Dmk6VtzoBD2T-50" value="" style="edgeStyle=orthogonalEdgeStyle;rounded=0;orthogonalLoop=1;jettySize=auto;html=1;" edge="1" parent="1" source="GtSeB2v9Dmk6VtzoBD2T-47" target="GtSeB2v9Dmk6VtzoBD2T-49">
          <mxGeometry relative="1" as="geometry" />
        </mxCell>
        <mxCell id="GtSeB2v9Dmk6VtzoBD2T-47" value="Talk To vendor" style="whiteSpace=wrap;html=1;" vertex="1" parent="1">
          <mxGeometry x="400" y="315" width="120" height="60" as="geometry" />
        </mxCell>
        <mxCell id="GtSeB2v9Dmk6VtzoBD2T-51" style="edgeStyle=orthogonalEdgeStyle;rounded=0;orthogonalLoop=1;jettySize=auto;html=1;exitX=1;exitY=0.5;exitDx=0;exitDy=0;" edge="1" parent="1" source="GtSeB2v9Dmk6VtzoBD2T-58" target="GtSeB2v9Dmk6VtzoBD2T-33">
          <mxGeometry relative="1" as="geometry">
            <mxPoint x="500" y="450" as="sourcePoint" />
          </mxGeometry>
        </mxCell>
        <mxCell id="GtSeB2v9Dmk6VtzoBD2T-52" style="edgeStyle=orthogonalEdgeStyle;rounded=0;orthogonalLoop=1;jettySize=auto;html=1;" edge="1" parent="1" source="GtSeB2v9Dmk6VtzoBD2T-49">
          <mxGeometry relative="1" as="geometry">
            <mxPoint x="750" y="250" as="targetPoint" />
            <Array as="points">
              <mxPoint x="310" y="530" />
              <mxPoint x="760" y="530" />
              <mxPoint x="760" y="250" />
            </Array>
          </mxGeometry>
        </mxCell>
        <mxCell id="GtSeB2v9Dmk6VtzoBD2T-59" value="" style="edgeStyle=orthogonalEdgeStyle;rounded=0;orthogonalLoop=1;jettySize=auto;html=1;" edge="1" parent="1" source="GtSeB2v9Dmk6VtzoBD2T-49" target="GtSeB2v9Dmk6VtzoBD2T-58">
          <mxGeometry relative="1" as="geometry" />
        </mxCell>
        <mxCell id="GtSeB2v9Dmk6VtzoBD2T-49" value="Accepts Measured Weight" style="rhombus;whiteSpace=wrap;html=1;" vertex="1" parent="1">
          <mxGeometry x="270" y="415" width="80" height="80" as="geometry" />
        </mxCell>
        <mxCell id="GtSeB2v9Dmk6VtzoBD2T-53" value="No" style="text;html=1;align=center;verticalAlign=middle;resizable=0;points=[];autosize=1;strokeColor=none;fillColor=none;" vertex="1" parent="1">
          <mxGeometry x="720" y="215" width="40" height="30" as="geometry" />
        </mxCell>
        <mxCell id="GtSeB2v9Dmk6VtzoBD2T-54" value="Yes" style="text;html=1;align=center;verticalAlign=middle;resizable=0;points=[];autosize=1;strokeColor=none;fillColor=none;" vertex="1" parent="1">
          <mxGeometry x="330" y="415" width="40" height="30" as="geometry" />
        </mxCell>
        <mxCell id="GtSeB2v9Dmk6VtzoBD2T-55" value="No" style="text;html=1;align=center;verticalAlign=middle;resizable=0;points=[];autosize=1;strokeColor=none;fillColor=none;" vertex="1" parent="1">
          <mxGeometry x="530" y="505" width="40" height="30" as="geometry" />
        </mxCell>
        <mxCell id="GtSeB2v9Dmk6VtzoBD2T-58" value="Set New Weight" style="whiteSpace=wrap;html=1;" vertex="1" parent="1">
          <mxGeometry x="380" y="420" width="120" height="60" as="geometry" />
        </mxCell>
      </root>
    </mxGraphModel>
  </diagram>
</mxfile>
